<svg width="58" height="60" viewBox="0 0 58 60" fill="none" xmlns="http://www.w3.org/2000/svg">
<path opacity="0.21" fill-rule="evenodd" clip-rule="evenodd" d="M0.0664062 30V37C0.0664062 49.7025 10.3639 60 23.0664 60H29.0332H35.0001C47.7026 60 58.0001 49.7025 58.0001 37V30V23C58.0001 10.2975 47.7026 0 35 0H29.0332H23.0664C10.3639 0 0.0664062 10.2975 0.0664062 23V30Z" fill="#FBBF24"/>
<path fill-rule="evenodd" clip-rule="evenodd" d="M14.5498 24.3164L27.006 31.7645C27.1401 31.8447 27.2808 31.9026 27.4239 31.9394V46.3846L15.4382 39.0385C14.8875 38.701 14.5498 38.0875 14.5498 37.4248V24.3164ZM43.5166 24.1184V37.4248C43.5166 38.0875 43.1789 38.701 42.6283 39.0385L30.6425 46.3846V31.8129C30.6717 31.7978 30.7006 31.7816 30.7293 31.7645L43.5166 24.1184V24.1184Z" fill="#FBBF24"/>
<path opacity="0.499209" fill-rule="evenodd" clip-rule="evenodd" d="M14.9412 20.7014C15.0933 20.5024 15.2853 20.3343 15.5092 20.2108L28.1822 13.2201C28.7142 12.9266 29.3524 12.9266 29.8844 13.2201L42.5574 20.2108C42.73 20.306 42.8836 20.4277 43.0147 20.5697L29.1201 28.8778C29.0287 28.9325 28.9445 28.995 28.8677 29.064C28.791 28.995 28.7067 28.9325 28.6154 28.8778L14.9412 20.7014Z" fill="#FBBF24"/>
</svg>
