<svg width="58" height="60" viewBox="0 0 58 60" fill="none" xmlns="http://www.w3.org/2000/svg">
<path opacity="0.21" fill-rule="evenodd" clip-rule="evenodd" d="M0.0663452 30V37C0.0663452 49.7025 10.3638 60 23.0664 60H29.0332H35C47.7025 60 58 49.7025 58 37V30V23C58 10.2975 47.7025 0 35 0H29.0332H23.0663C10.3638 0 0.0663452 10.2975 0.0663452 23V30Z" fill="#64AEFF"/>
<path fill-rule="evenodd" clip-rule="evenodd" d="M14.5498 24.3164L27.006 31.7645C27.1401 31.8447 27.2807 31.9026 27.4239 31.9394V46.3846L15.4381 39.0385C14.8875 38.701 14.5498 38.0875 14.5498 37.4248V24.3164ZM43.5166 24.1184V37.4248C43.5166 38.0875 43.1788 38.701 42.6282 39.0385L30.6424 46.3846V31.8129C30.6716 31.7978 30.7006 31.7816 30.7292 31.7645L43.5166 24.1184V24.1184Z" fill="#64AEFF"/>
<path opacity="0.499209" fill-rule="evenodd" clip-rule="evenodd" d="M14.941 20.7014C15.0932 20.5024 15.2852 20.3343 15.5091 20.2108L28.1821 13.2201C28.7141 12.9266 29.3522 12.9266 29.8843 13.2201L42.5572 20.2108C42.7298 20.306 42.8835 20.4277 43.0145 20.5697L29.12 28.8778C29.0286 28.9325 28.9444 28.995 28.8676 29.064C28.7908 28.995 28.7066 28.9325 28.6152 28.8778L14.941 20.7014Z" fill="#64AEFF"/>
</svg>
