<svg width="90" height="89" viewBox="0 0 90 89" fill="none" xmlns="http://www.w3.org/2000/svg">
<circle cx="45" cy="44.3164" r="26.4164" fill="white"/>
<path fill-rule="evenodd" clip-rule="evenodd" d="M56.6191 5.10186C50.2021 -1.3152 39.7979 -1.3152 33.3809 5.10186L5.78546 32.6973C-0.631609 39.1143 -0.63161 49.5185 5.78545 55.9355L33.3809 83.531C39.7979 89.948 50.2021 89.948 56.6191 83.531L84.2145 55.9355C90.6316 49.5185 90.6316 39.1143 84.2145 32.6973L56.6191 5.10186ZM52.1608 27.0697L56.1633 29.171C59.7135 31.0322 61.7988 32.1288 63.0916 33.5938L45.0003 42.6394L26.9091 33.5938C28.2019 32.1288 30.2892 31.0322 33.8374 29.171L37.8399 27.0697C41.3541 25.2246 43.1111 24.304 45.0003 24.304C46.8876 24.304 48.643 25.2247 52.1501 27.0641L52.1608 27.0697ZM46.5013 45.245L64.5084 36.2394C65.0127 38.0445 65.0127 40.414 65.0127 44.2023V44.4365C65.0127 49.4856 65.0127 52.0132 63.818 54.0424C62.6226 56.0715 60.4726 57.2 56.1773 59.4544L56.1633 59.4618L52.1608 61.5631C49.5732 62.922 47.9381 63.7785 46.5013 64.1367V45.245ZM43.4994 45.245V64.1367C42.0625 63.7785 40.4275 62.922 37.8399 61.5631L33.8374 59.4638C29.5327 57.2044 27.3794 56.0737 26.1826 54.0424C24.9879 52.0132 24.9879 49.4856 24.9879 44.4325V44.1983C24.9879 40.414 24.9879 38.0445 25.4922 36.2394L43.4994 45.245Z" fill="#1E293B"/>
</svg>
